# xmcd CD database file
#
# Track frame offsets:
#	150
#	44372
#	66665
#	101467
#	135360
#	152160
#
# Disc length: 2975 seconds
#
# Revision: 0
# Processed by: cddbd v1.5.2PL0 Copyright (c) Steve Scherf et al.
# Submitted via: CDex 1.51
#
DISCID=4d0b9d06
DTITLE=Adam Rudolph - Go: Organic Orchestra - In The Garden [CD1]
DYEAR=2003
DGENRE=Jazz
TTITLE0=Little Tree
TTITLE1=Nanna
TTITLE2=Morphic Resonance
TTITLE3=Lobelia, Euphorbia, Rock
TTITLE4=Trace Elements
TTITLE5=Root Pressure
EXTD=YEAR: 2003
EXTT0=
EXTT1=
EXTT2=
EXTT3=
EXTT4=
EXTT5=
PLAYORDER=
